<?xml version="1.0" standalone="no"?>
<!DOCTYPE svg PUBLIC "-//W3C//DTD SVG 20010904//EN"
 "http://www.w3.org/TR/2001/REC-SVG-20010904/DTD/svg10.dtd">
<svg version="1.0" xmlns="http://www.w3.org/2000/svg"
 width="512.000000pt" height="512.000000pt" viewBox="0 0 512.000000 512.000000"
 preserveAspectRatio="xMidYMid meet">

<g transform="translate(0.000000,512.000000) scale(0.100000,-0.100000)"
fill="#000000" stroke="none">
<path d="M2295 4790 c-341 -23 -748 -181 -1086 -422 -132 -94 -371 -330 -473
-468 -211 -284 -356 -605 -416 -920 -34 -180 -41 -254 -41 -451 1 -202 11
-339 37 -469 20 -98 66 -260 74 -260 4 0 43 44 88 97 148 180 301 310 508 433
65 38 122 70 127 70 6 0 8 2 6 5 -3 2 -108 7 -234 10 -126 3 -231 7 -233 10
-9 9 25 40 143 128 245 183 422 289 665 395 222 98 418 157 646 197 126 22
190 42 215 68 12 12 37 56 57 97 83 179 111 241 151 330 54 123 94 195 106
194 12 -1 46 -70 145 -295 43 -97 82 -184 87 -194 8 -14 23 2 88 96 84 123
114 161 125 154 4 -2 5 -98 2 -212 -2 -131 0 -218 6 -234 9 -22 26 -32 89 -53
178 -59 290 -184 326 -362 l14 -69 349 -5 c192 -3 354 -8 361 -13 13 -9 1 -50
-66 -211 -70 -170 -156 -297 -235 -345 -29 -18 -52 -19 -301 -19 -203 0 -289
-4 -346 -15 -327 -66 -588 -308 -670 -622 -20 -75 -24 -113 -23 -230 1 -122 4
-151 28 -230 31 -102 88 -214 149 -294 81 -105 235 -215 359 -257 70 -23 251
-24 325 -1 131 40 411 210 573 347 278 235 517 568 644 899 47 123 122 379
135 462 94 613 -40 1216 -374 1689 -263 371 -591 638 -989 805 -123 51 -331
116 -451 139 -163 33 -438 43 -690 26z"/>
<path d="M3000 2810 c14 -11 36 -26 50 -33 14 -8 51 -28 83 -46 55 -30 97 -34
97 -10 0 5 6 9 13 9 6 0 28 14 47 29 l35 29 -25 6 c-44 9 -265 36 -296 36
l-29 0 25 -20z"/>
</g>
</svg>
