<?xml version="1.0" standalone="no"?>
<!DOCTYPE svg PUBLIC "-//W3C//DTD SVG 20010904//EN"
 "http://www.w3.org/TR/2001/REC-SVG-20010904/DTD/svg10.dtd">
<svg version="1.0" xmlns="http://www.w3.org/2000/svg"
 width="500.000000pt" height="500.000000pt" viewBox="0 0 500.000000 500.000000"
 preserveAspectRatio="xMidYMid meet">

<g transform="translate(0.000000,500.000000) scale(0.100000,-0.100000)"
fill="#000000" stroke="none">
<path d="M2335 4894 c-16 -2 -97 -14 -180 -25 -418 -59 -824 -236 -1175 -513
-289 -229 -569 -608 -709 -962 -151 -381 -208 -777 -165 -1144 65 -568 301
-1065 689 -1456 395 -397 889 -631 1475 -699 169 -19 289 -19 455 0 699 81
1287 413 1695 956 252 336 390 669 456 1103 90 581 -60 1214 -403 1703 -317
452 -751 768 -1288 937 -190 60 -426 96 -650 101 -93 2 -183 1 -200 -1z m310
-1548 c180 -22 321 -80 424 -175 30 -28 42 -46 39 -59 -3 -10 -41 -67 -84
-125 -89 -120 -109 -130 -158 -78 -36 38 -135 87 -216 107 -47 12 -94 15 -176
12 -98 -4 -118 -8 -170 -34 -76 -38 -104 -78 -104 -151 0 -141 59 -179 370
-243 269 -54 382 -101 483 -202 172 -171 184 -500 25 -706 -43 -55 -143 -127
-218 -156 -227 -89 -580 -70 -805 42 -117 58 -265 192 -265 240 0 22 187 242
205 242 8 0 49 -35 92 -78 53 -53 100 -90 148 -114 164 -84 380 -90 495 -14
80 52 107 176 60 271 -38 75 -118 112 -375 170 -216 49 -308 84 -402 156 -56
42 -118 126 -147 199 -27 68 -33 238 -12 320 53 205 247 348 516 379 109 12
152 12 275 -3z"/>
</g>
</svg>
